<svg aria-hidden="true" style="position:absolute;width:0;height:0" xmlns="http://www.w3.org/2000/svg" overflow="hidden"><defs><symbol id="icon-antenna" viewBox="0 0 32 32"><path fill="var(--color1, #212121)" d="M30.773 22.098l-8.443-8.505.937-4.616c.225.09.485.144.758.146h.033a2.16 2.16 0 10-2.029-1.42l-.005-.015-4.96.606L8.973.161a.53.53 0 00-.376-.16.536.536 0 00-.373.155L6.712 1.66a.535.535 0 000 .754l.814.825C6.383 5.301 5.71 7.761 5.71 10.378c0 4.106 1.656 7.824 4.336 10.525l-.001-.001a.49.49 0 00.146.097 2.986 2.986 0 00-.052.546v6.188h-6.4a2.669 2.669 0 00-2.667 2.666v1.067c0 .295.239.534.534.534H26.14a.534.534 0 00.533-.534v-1.067a2.67 2.67 0 00-2.666-2.666h-6.4v-2.742a14.784 14.784 0 0010.166-1.502l-.077.039.818.823a.534.534 0 00.376.16.536.536 0 00.373-.155l1.512-1.504a.535.535 0 000-.754zM23.28 6.233a1.067 1.067 0 11.752 1.822h-.004a1.066 1.066 0 01-.747-1.822h-.002zm-1.256 3.504l-.598 2.946-1.175-1.183 1.774-1.763zm-.605-.902l-1.92 1.909-1.486-1.493 3.406-.416zM24.004 28.8a1.6 1.6 0 011.6 1.6v.534H2.138V30.4a1.6 1.6 0 011.6-1.6h20.267zm-7.466-2.134v1.067h-5.334v-1.067h5.334zM11.204 25.6v-4.053c0-1.294 1.196-2.346 2.667-2.346s2.667 1.053 2.667 2.346V25.6h-5.334zm6.4-1.696v-2.357c0-1.882-1.675-3.413-3.733-3.413h-.058c-1.353 0-2.54.707-3.213 1.771l-.009.016a13.817 13.817 0 01-3.812-9.55c0-2.314.567-4.496 1.569-6.414l-.036.077 18.602 18.709c-1.823.947-3.979 1.502-6.266 1.502-1.079 0-2.128-.124-3.136-.357l.093.018zm11.289-.684L7.836 2.039l.754-.752 7.935 7.98c.004 0 .006.007.01.01l13.114 13.191-.757.752z"/><path fill="var(--color2, #2196f3)" d="M13.876 20.267h-.007a1.6 1.6 0 00-.003 3.2h.007a1.6 1.6 0 00.002-3.2zm.373 1.978a.534.534 0 11-.378-.912.533.533 0 01.374.911h.005z"/></symbol><symbol id="icon-astronaut" viewBox="0 0 32 32"><path fill="var(--color2, #2196f3)" d="M31.974 4.524a.535.535 0 00-.427-.362h-.003l-1.911-.278-.855-1.731c-.179-.365-.777-.365-.956 0l-.855 1.731-1.911.278a.534.534 0 00-.296.91l1.383 1.348-.326 1.903a.532.532 0 00.774.562l1.709-.899 1.709.899a.534.534 0 00.773-.566v.003l-.326-1.903 1.383-1.348a.535.535 0 00.134-.55l.001.004zm-2.463 1.327a.53.53 0 00-.153.472l.191 1.114-1-.526a.525.525 0 00-.501.001l.003-.001-1 .526.191-1.114a.533.533 0 00-.153-.472l-.81-.789 1.119-.163a.53.53 0 00.401-.292l.501-1.013.5 1.013a.532.532 0 00.402.292l1.119.162-.809.79zm-3.377 14.671h-1.067v1.067h1.067v-1.067zm0 2.134h-1.067v1.066h1.067v-1.066zm1.066-1.067h-1.067v1.067H27.2v-1.067zM25.067 21.589H24v1.067h1.067v-1.067zm-2.667 4.8h-1.067v1.067H22.4v-1.067zm0 2.134h-1.067v1.067H22.4v-1.067zm1.067-1.067H22.4v1.067h1.067v-1.067zm-2.133 0h-1.067v1.067h1.067v-1.067zM16 24.256h-1.067v1.067H16v-1.067zm0 2.133h-1.067v1.067H16v-1.067zm1.067-1.067H16v1.067h1.067v-1.067z"/><path fill="var(--color2, #2196f3)" d="M14.934 25.322h-1.067v1.067h1.067v-1.067zm-9.067-19.2H4.8v1.066h1.067V6.122zm0 2.134H4.8v1.066h1.067V8.256zm1.066-1.067H5.866v1.067h1.066V7.189zm-2.133 0H3.733v1.067H4.8V7.189z"/><path fill="var(--color1, #212121)" d="M24.715 14.16a1.774 1.774 0 00-1.179-.703l-.009-.001a1.769 1.769 0 00-1.344.355l.004-.003-1.253.96-1.898 1.417-1.358-.541c2.421-1.086 4.113-3.508 4.113-6.32 0-3.823-3.122-6.934-6.961-6.934S7.869 5.5 7.869 9.324c0 1.386.415 2.674 1.12 3.759l-2.768-.024c-.009 0-.016.005-.023.005a.511.511 0 00-.159.033l.004-.001c-.013.005-.026.007-.038.013-.006.003-.013.003-.019.006l-3.233 1.596-.001.001-1.893.91a.429.429 0 00-.064.036l.001-.001a1.782 1.782 0 00-.594 2.306l-.005-.01c.22.424.592.742 1.043.885l.013.003a1.772 1.772 0 001.388-.133l-.009.005 1.388-.738 2.264-1.169 1.357-.008-5.442 5.415-.001.001-1.339 1.333c-.303.299-.49.714-.49 1.173v.005a1.66 1.66 0 001.666 1.663h.004a1.67 1.67 0 001.18-.485l1.314-1.309 1.741-1.3.901.897-3.102 3.088a1.645 1.645 0 00-.491 1.174v.004a1.662 1.662 0 001.666 1.664h.003a1.67 1.67 0 001.18-.485l4.488-4.472c.007-.006.016-.009.022-.016l5.166-5.658 3.471.494a.474.474 0 00.262-.032c.018-.006.033-.015.05-.023.019-.01.039-.015.058-.027l3.213-2.133c.012-.008.018-.021.029-.03.013-.01.029-.014.041-.026l1.271-1.191c.348-.326.564-.787.564-1.3 0-.4-.132-.769-.355-1.066l.003.005zM2.13 17.77a.706.706 0 01-.564.05l.005.001a.717.717 0 01-.214-1.258l.002-.001 1.314-.632.316.924.133.389-.992.527zm3.497-1.828l-1.548.8-.255-.746-.184-.537 2.027-1.001-.04 1.484zm15.1-6.62c0 .918-.219 1.785-.599 2.56l-4.181-1.899a1.865 1.865 0 00-.782-1.384l-.006-.004 1.463-4.861c2.378.756 4.105 2.974 4.105 5.588zm-11.789 0c0-3.235 2.644-5.867 5.894-5.867.253 0 .5.022.745.053l-1.432 4.753c-.019 0-.037-.006-.057-.006h-.001a1.872 1.872 0 00-1.872 1.867 1.873 1.873 0 001.872 1.867h.001c.695 0 1.295-.383 1.618-.944l3.863 1.755a5.893 5.893 0 01-4.737 2.389c-3.25 0-5.894-2.632-5.894-5.867zm5.957.8c0 .441-.362.8-.806.8h-.001a.804.804 0 01-.804-.8c0-.441.361-.8.806-.8s.806.359.806.8zM2.464 25.146a.606.606 0 01-.855.001.591.591 0 010-.844l.962-.959.852.848-.959.955zm3.214 3.734a.606.606 0 01-.855.001.591.591 0 010-.844l.963-.959.852.848-.96.955zm3.482-3.469l-.001.001-1.765 1.76-.852-.848 1.765-1.757a.527.527 0 00.09-.136c.007-.014.02-.026.026-.04.016-.041.019-.085.026-.128.003-.025.014-.048.014-.073 0-.035-.013-.07-.02-.105-.006-.032-.006-.064-.019-.096a.536.536 0 00-.092-.138c-.01-.012-.014-.027-.025-.038h-.001l-.001-.002-1.607-1.6c-.017-.017-.039-.024-.058-.038a.563.563 0 00-.084-.057l-.003-.001a.415.415 0 00-.09-.031l-.003-.001a.502.502 0 00-.101-.02h-.002l-.023-.001a.603.603 0 00-.075.005h.003c-.036.005-.069.009-.104.021a.512.512 0 00-.097.046l.002-.001c-.02.011-.042.015-.061.029l-1.773 1.324-.901-.897 2.399-2.386 4.361 4.289-.928.919zm6.819-7.017c-.015-.002-.03.004-.045.003l-.027-.001a.562.562 0 00-.092.008h.003a.484.484 0 00-.187.07l.002-.001a.492.492 0 00-.083.061c-.013.011-.028.016-.04.029l-4.698 5.146-4.328-4.256 2.833-2.818a.535.535 0 00-.378-.911h-.002l-2.219.013.028-1.607 3.104.027a6.928 6.928 0 004.978 2.101h.003c.438 0 .864-.046 1.28-.122.04.032.08.064.129.085l2.41.96.152.759.178.885-3.003-.427zm4.041.178l-.313-1.558 1.446-1.08.946 1.257-2.08 1.381zm3.754-2.831l-.838.785-.931-1.237.831-.637a.735.735 0 01.543-.143.718.718 0 01.621.71.71.71 0 01-.226.521z"/><path fill="var(--color1, #212121)" d="M13.602 18.544l-2.143-2.134a.53.53 0 00-.752 0l-2.143 2.134a.535.535 0 000 .756l2.143 2.134a.53.53 0 00.752 0l2.143-2.134a.532.532 0 000-.756zm-2.519 1.759l-1.387-1.381 1.386-1.381 1.387 1.381-1.387 1.381zm6.081-15.232l-.258 1.036c.071.018 1.738.452 1.738 2.149h1.067c0-2.017-1.666-2.965-2.547-3.184zm2.547 4.251h-1.067v1.066h1.067V9.322z"/></symbol><symbol id="icon-clock" viewBox="0 0 32 32"><path fill="var(--color1, #212121)" d="M31.296 15.301C31.295 6.849 24.441-.002 15.988 0S.685 6.855.687 15.308c.002 6.788 4.422 12.543 10.541 14.545l.108.031a.667.667 0 00.529-.065.636.636 0 00.283-.357l3.865-12.25a1.913 1.913 0 10-.852-3.63l.011-.005-5.106-5.107a.638.638 0 00-.902.902l5.103 5.109a1.847 1.847 0 00-.191.826c0 .602.283 1.137.723 1.48l.004.003-3.682 11.673C3.843 25.782.117 17.709 2.797 10.431S13.551-.573 20.829 2.108c7.278 2.681 11.004 10.754 8.323 18.032-1.345 3.581-4.003 6.406-7.374 7.938l-.088.036-.398-1.874a.639.639 0 00-1.05-.343l.001-.001-3.837 3.426a.637.637 0 00.227 1.083l.005.001 4.899 1.563a.637.637 0 00.818-.744l.001.004-.391-1.839c5.528-2.374 9.329-7.772 9.329-14.057v-.034.002zm-15.304-.637a.638.638 0 010 1.276.638.638 0 010-1.276zm2.1 14.864l2.184-1.948.603 2.84-2.787-.892z"/><path fill="var(--color2, #2196f3)" d="M15.354 3.185V4.46a.638.638 0 001.276 0V3.185a.638.638 0 10-1.276 0zM3.876 14.664a.638.638 0 000 1.276h1.275a.638.638 0 000-1.276H3.876zm24.232 1.275a.638.638 0 000-1.276h-1.275a.638.638 0 000 1.276h1.275z"/></symbol><symbol id="icon-diagram" viewBox="0 0 32 32"><path fill="var(--color2, #2196f3)" d="M14.926 14.965h1.066v4.798h-1.066v-4.798zm4.264 2.132h1.066v2.665H19.19v-2.665zm-8.529 1.599h1.066v1.066h-1.066v-1.066zm-3.198-.533h1.066v1.599H7.463v-1.599z"/><path fill="var(--color1, #212121)" d="M1.599 28.291h25.586a1.6 1.6 0 001.599-1.599V24.56a1.6 1.6 0 00-1.599-1.599h-.533V9.667l3.028-2.868a1.608 1.608 0 10-.742-.752l-.004-.01-2.281 2.162v-1.23a1.6 1.6 0 00-1.599-1.599H3.731a1.6 1.6 0 00-1.599 1.599v15.992h-.533A1.6 1.6 0 000 24.56v2.132a1.6 1.6 0 001.599 1.599zM30.384 4.837a.533.533 0 010 1.066.533.533 0 010-1.066zM3.198 6.969c0-.294.239-.533.533-.533h21.323c.294 0 .533.239.533.533v2.239l-1.066 1.013V8.036a.534.534 0 00-.534-.534H4.798a.534.534 0 00-.534.533v13.327c0 .294.239.533.534.533h19.189a.534.534 0 00.534-.533v-9.675l1.066-1.01V22.96H3.198V6.969zm4.798 6.93h-.005a1.6 1.6 0 101.112 2.748l1.853.93a.535.535 0 00.636-.122l3.939-4.432 3.872 2.902a.534.534 0 00.686-.039l3.365-3.188v8.131H5.331V8.568h18.123v2.661l-3.771 3.572-3.904-2.927a.534.534 0 00-.718.071v.001l-3.993 4.493-1.493-.746c.011-.064.017-.128.02-.193a1.6 1.6 0 00-1.599-1.599zm.533 1.599a.533.533 0 01-1.066 0 .533.533 0 011.066 0zm3.198 8.528h5.33v.533a.533.533 0 01-.533.533h-4.265a.533.533 0 01-.533-.533v-.533zm-10.66.534c0-.294.238-.533.533-.533h9.062v.533a1.6 1.6 0 001.599 1.599h4.265a1.6 1.6 0 001.599-1.599v-.533h9.062c.294 0 .533.239.533.533v2.132a.533.533 0 01-.533.533H1.601a.533.533 0 01-.533-.533V24.56z"/></symbol><symbol id="icon-envelope" viewBox="0 0 32 32"><path fill="var(--color3, #757575)" d="M29 4H3C1.346 4 0 5.256 0 6.8v16.804c0 1.544 1.346 2.8 3 2.8h26c1.654 0 3-1.256 3-2.8V6.8C32 5.256 30.654 4 29 4zm0 1.866c.136 0 .266.028.384.074L16 16.768 2.616 5.94c.114-.046.246-.073.384-.074h26zm0 18.67H3c-.552 0-1-.418-1-.932V7.912l13.344 10.796c.176.142.403.228.65.228h.012c.247 0 .474-.086.652-.23l-.002.002L30 7.912v15.692c0 .514-.448.932-1 .932z"/></symbol><symbol id="icon-facebook" viewBox="0 0 32 32"><path fill="var(--color4, #fff)" d="M32 16v.02a15.9 15.9 0 01-4.686 11.293A15.902 15.902 0 0116.021 32H16h.001-.02a15.9 15.9 0 01-11.293-4.686A15.902 15.902 0 01.001 16.021V16v-.019A15.9 15.9 0 014.687 4.688 15.902 15.902 0 0115.98.001h.021H16h.02a15.9 15.9 0 0111.293 4.686A15.902 15.902 0 0132 15.98v.021V16z"/><path fill="var(--color5, #afb1b8)" d="M18.422 11.142h1.329V8.829c-.56-.065-1.21-.102-1.867-.102h-.071.004c-1.915 0-3.226 1.204-3.226 3.418v2.036h-2.113v2.585h2.113v6.505h2.591v-6.505h2.027l.322-2.585h-2.35v-1.782c0-.747.201-1.258 1.243-1.258z"/></symbol><symbol id="icon-instagram" viewBox="0 0 32 32"><path fill="var(--color2, #2196f3)" d="M32 16v.02a15.9 15.9 0 01-4.686 11.293A15.902 15.902 0 0116.021 32H16h.001-.02a15.9 15.9 0 01-11.293-4.686A15.902 15.902 0 01.001 16.021V16v-.019A15.9 15.9 0 014.687 4.688 15.902 15.902 0 0115.98.001h.021H16h.02a15.9 15.9 0 0111.293 4.686A15.902 15.902 0 0132 15.98v.021V16z"/><path fill="var(--color4, #fff)" d="M23.258 13.004c-.033-.773-.159-1.304-.337-1.764a3.57 3.57 0 00-.841-1.29l-.001-.001a3.583 3.583 0 00-1.263-.83l-.024-.008c-.463-.179-.991-.304-1.764-.337-.778-.037-1.025-.046-3.001-.046s-2.222.009-2.998.043c-.773.033-1.304.159-1.764.338a3.58 3.58 0 00-1.29.84l-.001.001c-.36.354-.645.784-.83 1.263l-.008.024c-.18.463-.304.991-.338 1.764-.037.778-.046 1.025-.046 3.001s.009 2.222.043 2.998c.034.773.159 1.304.338 1.764.194.505.48.935.84 1.29h.001c.364.369.804.656 1.287.838.463.18.992.305 1.764.338.776.034 1.023.043 2.998.043s2.222-.009 2.998-.043c.773-.033 1.304-.159 1.764-.337a3.741 3.741 0 002.12-2.104l.009-.025c.179-.463.304-.992.338-1.764.034-.776.042-1.023.042-2.998s-.003-2.222-.036-2.998zm-1.309 5.939c-.032.711-.151 1.094-.25 1.349a2.428 2.428 0 01-1.365 1.376l-.016.006c-.255.099-.641.218-1.349.249-.767.034-.997.043-2.938.043s-2.174-.009-2.938-.043c-.711-.031-1.094-.151-1.35-.25a2.237 2.237 0 01-.834-.542l-.001-.001a2.268 2.268 0 01-.538-.819l-.005-.016c-.099-.256-.218-.642-.249-1.35-.034-.767-.043-.998-.043-2.938s.009-2.175.043-2.938c.031-.711.151-1.094.249-1.35.122-.328.308-.608.545-.835l.001-.001c.229-.235.509-.42.821-.537l.016-.005c.255-.099.641-.218 1.349-.25.767-.033.998-.042 2.938-.042 1.943 0 2.174.008 2.938.042.711.031 1.094.151 1.35.25.315.116.602.301.835.543.241.236.426.52.543.836.099.255.218.641.249 1.349.034.767.043.997.043 2.938s-.009 2.167-.043 2.935z"/><path fill="var(--color4, #fff)" d="M16.027 12.265a3.737 3.737 0 00-3.737 3.737v.001a3.737 3.737 0 103.737-3.737h-.001zm0 6.16a2.424 2.424 0 110-4.848 2.424 2.424 0 110 4.848zm4.757-6.308a.873.873 0 01-1.746 0 .873.873 0 011.746 0z"/></symbol><symbol id="icon-instagramfooter" viewBox="0 0 32 32"><path fill="var(--color4, #fff)" d="M31.968 9.408c-.074-1.701-.349-2.869-.742-3.882a7.839 7.839 0 00-1.85-2.837l-.001-.001A7.906 7.906 0 0026.597.861l-.054-.018C25.524.449 24.362.176 22.661.101 20.949.019 20.405 0 16.059 0c-4.344 0-4.888.019-6.595.094-1.699.074-2.869.349-3.88.742a7.847 7.847 0 00-2.839 1.85l-.001.001A7.9 7.9 0 00.919 5.465l-.018.054C.506 6.538.232 7.7.157 9.401c-.082 1.712-.101 2.256-.101 6.602 0 4.344.019 4.888.094 6.595.075 1.701.35 2.869.744 3.882a7.915 7.915 0 001.849 2.837l.001.001c.8.813 1.77 1.443 2.832 1.843 1.019.395 2.182.67 3.882.744 1.707.075 2.251.094 6.595.094 4.346 0 4.89-.019 6.595-.094 1.701-.074 2.869-.349 3.882-.742a8.237 8.237 0 004.664-4.628l.019-.055c.394-1.019.669-2.182.744-3.882.075-1.707.093-2.251.093-6.595s-.006-4.888-.08-6.595zm-2.88 13.066c-.07 1.563-.333 2.406-.55 2.97a5.341 5.341 0 01-3.004 3.024l-.036.012c-.56.219-1.411.482-2.968.55-1.688.075-2.194.094-6.464.094-4.269 0-4.782-.019-6.464-.094-1.563-.069-2.406-.331-2.97-.55a4.953 4.953 0 01-1.836-1.192l-.001-.001a4.978 4.978 0 01-1.184-1.803L3.6 25.45c-.218-.563-.48-1.413-.549-2.97-.075-1.688-.094-2.195-.094-6.464 0-4.27.019-4.784.094-6.464.069-1.563.331-2.406.549-2.97a4.897 4.897 0 011.198-1.837l.002-.002a4.972 4.972 0 011.806-1.182l.034-.011c.56-.219 1.411-.48 2.968-.55 1.688-.074 2.195-.093 6.464-.093 4.275 0 4.782.019 6.464.093 1.563.069 2.406.331 2.97.55a4.91 4.91 0 011.837 1.194c.531.52.938 1.144 1.195 1.84.218.56.48 1.411.549 2.968.075 1.688.094 2.194.094 6.464 0 4.269-.019 4.768-.094 6.458z"/><path fill="var(--color4, #fff)" d="M16.059 7.782a8.223 8.223 0 00-8.219 8.221v.002a8.222 8.222 0 1016.444 0 8.222 8.222 0 00-8.222-8.222h-.002zm0 13.552a5.333 5.333 0 01.001-10.666h.001a5.334 5.334 0 110 10.668zM26.525 7.458a1.92 1.92 0 01-3.84 0 1.92 1.92 0 013.84 0z"/></symbol><symbol id="icon-smartphone" viewBox="0 0 32 32"><path fill="var(--color3, #757575)" d="M23.467 0H8.534c-1.764 0-3.2 1.34-3.2 2.987v25.89c0 1.647 1.436 2.987 3.2 2.987h14.933c1.764 0 3.2-1.34 3.2-2.987V2.987c0-1.647-1.436-2.987-3.2-2.987zM8.533 1.993h14.933c.589 0 1.067.446 1.067.994v20.911H7.466V2.987c0-.548.478-.994 1.067-.994zm14.934 27.88H8.534c-.589 0-1.067-.448-1.067-.996V25.89h17.067v2.987c0 .548-.478.994-1.067.994z"/><path fill="var(--color3, #757575)" d="M10.355 27.177a.947.947 0 010 1.407l-.001.001c-.198.182-.464.293-.755.293s-.557-.111-.756-.294l.001.001a.947.947 0 010-1.407l.001-.001c.198-.182.464-.293.755-.293s.557.111.756.294l-.001-.001z"/></symbol><symbol id="icon-twitter" viewBox="0 0 32 32"><path fill="var(--color4, #fff)" d="M32 16v.02a15.9 15.9 0 01-4.686 11.293A15.902 15.902 0 0116.021 32H16h.001-.02a15.9 15.9 0 01-11.293-4.686A15.902 15.902 0 01.001 16.021V16v-.019A15.9 15.9 0 014.687 4.688 15.902 15.902 0 0115.98.001h.021H16h.02a15.9 15.9 0 0111.293 4.686A15.902 15.902 0 0132 15.98v.021V16z"/><path fill="var(--color5, #afb1b8)" d="M23.273 11.49c-.5.224-1.08.39-1.688.467l-.031.003a2.98 2.98 0 001.306-1.627l.006-.021a5.851 5.851 0 01-1.853.715l-.038.006a2.981 2.981 0 00-5.158 2.036v.003c0 .236.02.464.07.68a8.443 8.443 0 01-6.147-3.119 2.984 2.984 0 00.917 3.986 2.937 2.937 0 01-1.362-.375l.015.008v.033a2.995 2.995 0 002.37 2.927l.02.003a2.906 2.906 0 01-.756.098h-.028.001-.047c-.183 0-.362-.019-.534-.054l.017.003a3.012 3.012 0 002.786 2.078 5.948 5.948 0 01-3.69 1.271h-.047c-.238 0-.472-.015-.701-.044l.027.003a8.317 8.317 0 004.547 1.338h.029-.002c5.487 0 8.487-4.545 8.487-8.486 0-.131-.004-.259-.011-.385a5.978 5.978 0 001.481-1.526l.014-.021z"/></symbol></defs></svg>